<?xml version="1.0" encoding="utf-8"?>
<!-- Generator: Adobe Illustrator 16.0.0, SVG Export Plug-In . SVG Version: 6.00 Build 0)  -->
<!DOCTYPE svg PUBLIC "-//W3C//DTD SVG 1.1//EN" "http://www.w3.org/Graphics/SVG/1.1/DTD/svg11.dtd">
<svg version="1.1" id="Calque_1" xmlns="http://www.w3.org/2000/svg" xmlns:xlink="http://www.w3.org/1999/xlink" x="0px" y="0px"
	 width="420px" height="325px" viewBox="0 0 420 325" enable-background="new 0 0 420 325" xml:space="preserve">
<g>
	<g id="XMLID_1_">
		<g>
			<path fill="#1C1C1C" d="M420,0v325H212v-36h68v-4h-21v-39h104c3.3,0,6-2.7,6-6V43c0-3.3-2.7-6-6-6H221v4h142c1.1,0,2,0.9,2,2v197
				c0,1.1-0.9,2-2,2H57c-1.1,0-2-0.9-2-2V43c0-1.1,0.9-2,2-2h155V0H420z M352,207V55H68v152H352z"/>
			<path fill="#1C1C1C" d="M348,100v103H116V100H348z M333,188v-31H132v31H333z M333,146v-31H132v31H333z"/>
			<path fill="#1C1C1C" d="M348,71v25H116V71H348z M333,90V76h-55v14H333z M156,85v-4h-23v4H156z"/>
			<path fill="#1C1C1C" d="M329,161v23H161v-23H329z M321,172c0-3.3-2.7-6-6-6s-6,2.7-6,6s2.7,6,6,6S321,175.3,321,172z M241,174v-4
				h-16v4H241z M217,174v-4h-38v4H217z"/>
			<path fill="#1C1C1C" d="M329,119v23H161v-23H329z M321,130c0-3.3-2.7-6-6-6s-6,2.7-6,6s2.7,6,6,6S321,133.3,321,130z M241,132v-4
				h-16v4H241z M217,132v-4h-38v4H217z"/>
			<rect x="282" y="80" fill="#1C1C1C" width="47" height="6"/>
			<path fill="#1C1C1C" d="M315,128c1.1,0,2,0.9,2,2s-0.9,2-2,2s-2-0.9-2-2S313.9,128,315,128z"/>
			<path fill="#1C1C1C" d="M315,170c1.1,0,2,0.9,2,2s-0.9,2-2,2s-2-0.9-2-2S313.9,170,315,170z"/>
			<path fill="#1C1C1C" d="M255,246v39h-47v40H0V0h208v37H57c-3.3,0-6,2.7-6,6v197c0,3.3,2.7,6,6,6h104v39h-21v4h62v-4h-37v-39H255z
				"/>
			<rect x="136" y="161" fill="#1C1C1C" width="21" height="23"/>
			<rect x="136" y="119" fill="#1C1C1C" width="21" height="23"/>
			<path fill="#1C1C1C" d="M112,71v132H72V71H112z M103,168v-4H81v4H103z M103,153v-4H81v4H103z M103,138v-4H81v4H103z M103,123v-4
				H81v4H103z M104,90c0-6.6-5.4-12-12-12s-12,5.4-12,12s5.4,12,12,12S104,96.6,104,90z"/>
			<path fill="#1C1C1C" d="M92,82c4.4,0,8,3.6,8,8s-3.6,8-8,8s-8-3.6-8-8S87.6,82,92,82z"/>
			<path fill="#1C1C1C" d="M93,65c1.1,0,2-0.9,2-2s-0.9-2-2-2v-2h255v8H93V65z"/>
			<path fill="#1C1C1C" d="M77,65c1.1,0,2-0.9,2-2s-0.9-2-2-2s-2,0.9-2,2S75.9,65,77,65z M85,65c1.1,0,2-0.9,2-2s-0.9-2-2-2
				s-2,0.9-2,2S83.9,65,85,65z M93,67H72v-8h21v2c-1.1,0-2,0.9-2,2s0.9,2,2,2V67z"/>
		</g>
		<g>
		</g>
	</g>
</g>
<g id="APP_DESIGN">
</g>
<g id="ECOMMERCE">
</g>
<g id="WORDPRESS">
</g>
</svg>
