<?xml version="1.0" encoding="utf-8"?>
<!-- Generator: Adobe Illustrator 16.0.0, SVG Export Plug-In . SVG Version: 6.00 Build 0)  -->
<!DOCTYPE svg PUBLIC "-//W3C//DTD SVG 1.1//EN" "http://www.w3.org/Graphics/SVG/1.1/DTD/svg11.dtd">
<svg version="1.1" id="Calque_1" xmlns="http://www.w3.org/2000/svg" xmlns:xlink="http://www.w3.org/1999/xlink" x="0px" y="0px"
	 width="420px" height="325px" viewBox="0 0 420 325" enable-background="new 0 0 420 325" xml:space="preserve">
<g id="WEB_DESIGN">
</g>
<g>
	<g id="XMLID_1_">
		<g>
			<path fill="#1C1C1C" d="M381,55v179c0,1.1-0.9,2-2,2H128V127c0-3.3-2.7-6-6-6h-6V55c0-1,1-2,2.2-2H212V0h208v325H212v-25H84v-24
				h38c3.3,0,6-2.7,6-6v-30h251c3.3,0,6-2.7,6-6V55c0-3.3-2.7-6-6-6H219v4h160C380.1,53,381,53.9,381,55z M359,228V61H136v167H359z
				 M361,144.5c0,5,4,9,9,9s9-4,9-9s-4-9-9-9S361,139.5,361,144.5z"/>
			<path fill="#1C1C1C" d="M370,139.5c2.8,0,5,2.2,5,5s-2.2,5-5,5s-5-2.2-5-5S367.2,139.5,370,139.5z"/>
			<path fill="#1C1C1C" d="M355,83v141h-12v-53h-92v53h-7v-53h-92v53h-12V83H355z M343,162V95h-92v67H343z M244,162V95h-92v67H244z"
				/>
			<path fill="#1C1C1C" d="M355,65v14H140V65H355z M261,74v-4h-26v4H261z"/>
			<rect x="255" y="175" fill="#1C1C1C" width="84" height="49"/>
			<rect x="255" y="147" fill="#1C1C1C" width="84" height="11"/>
			<rect x="255" y="99" fill="#1C1C1C" width="84" height="44"/>
			<rect x="156" y="175" fill="#1C1C1C" width="84" height="49"/>
			<rect x="156" y="147" fill="#1C1C1C" width="84" height="11"/>
			<rect x="156" y="99" fill="#1C1C1C" width="84" height="44"/>
			<path fill="#1C1C1C" d="M124,254v16c0,1.1-0.9,2-2,2H82v-2c3.9,0,7-3.1,7-7s-3.1-7-7-7v-2H124z"/>
			<path fill="#1C1C1C" d="M124,154v96h-4v-37H43v37h-4v-96H124z M120,208v-49H43v49H120z"/>
			<polygon fill="#1C1C1C" points="124,142 124,150 72,150 72,148 91,148 91,144 91,142 			"/>
			<path fill="#1C1C1C" d="M124,127v11H39v-11c0-1.1,0.9-2,2-2h81C123.1,125,124,125.9,124,127z M83.5,131c0-1.1-0.9-2-2-2
				s-2,0.9-2,2s0.9,2,2,2S83.5,132.1,83.5,131z"/>
			<rect x="47" y="217" fill="#1C1C1C" width="69" height="33"/>
			<rect x="47" y="196" fill="#1C1C1C" width="69" height="8"/>
			<rect x="47" y="163" fill="#1C1C1C" width="69" height="29"/>
			<path fill="#1C1C1C" d="M82,260c1.7,0,3,1.4,3,3c0,1.7-1.3,3-3,3s-3-1.3-3-3S80.3,260,82,260z"/>
			<path fill="#1C1C1C" d="M80,272v32h128v21H0V0h208v49h-89.8c-3.4,0-6.2,2.7-6.2,6v66H41c-3.3,0-6,2.7-6,6v143c0,3.3,2.7,6,6,6h32
				v-4H41c-1.1,0-2-0.9-2-2v-16h43v2c-3.9,0-7,3.1-7,7s3.1,7,7,7v2H80z"/>
			<polygon fill="#1C1C1C" points="72,144 72,148 72,150 39,150 39,142 91,142 91,144 			"/>
		</g>
		<g>
		</g>
	</g>
</g>
<g id="ECOMMERCE">
</g>
<g id="WORDPRESS">
</g>
</svg>
