<?xml version="1.0" encoding="utf-8"?>
<!-- Generator: Adobe Illustrator 16.0.0, SVG Export Plug-In . SVG Version: 6.00 Build 0)  -->
<!DOCTYPE svg PUBLIC "-//W3C//DTD SVG 1.1//EN" "http://www.w3.org/Graphics/SVG/1.1/DTD/svg11.dtd">
<svg version="1.1" id="Calque_1" xmlns="http://www.w3.org/2000/svg" xmlns:xlink="http://www.w3.org/1999/xlink" x="0px" y="0px"
	 width="420px" height="325px" viewBox="0 0 420 325" enable-background="new 0 0 420 325" xml:space="preserve">
<g id="WEB_DESIGN">
</g>
<g id="APP_DESIGN">
</g>
<g>
	<g id="XMLID_1_">
		<g>
			<path fill="#1C1C1C" d="M392,271v6c0,2.2-1.8,4-4,4H208v4v40H0V0h208v42h-34c-2.2,0-4,1.8-4,4v36c0,2.2,1.8,4,4,4h20v6
				c0,2.2,1.8,4,4,4h5v2H72.8c-3.7,0-6.8,3.1-6.8,6.7V267H24v10c0,4.4,3.6,8,8,8h170v-4H32c-2.2,0-4-1.8-4-4v-6H392z"/>
			<path fill="#1C1C1C" d="M350,104.7V267h-7V115H77v152h-7V104.7c0-1.5,1.3-2.7,2.8-2.7h274.4C348.7,102,350,103.2,350,104.7z"/>
			<path fill="#1C1C1C" d="M339,134v25H96v-2.5c5.5,0,10-4.5,10-10s-4.5-10-10-10V134H339z M334,153v-14h-64v14H334z"/>
			<path fill="#1C1C1C" d="M89,122c-1.1,0-2,0.9-2,2s0.9,2,2,2s2-0.9,2-2S90.1,122,89,122z M97,122c-1.1,0-2,0.9-2,2s0.9,2,2,2
				s2-0.9,2-2S98.1,122,97,122z M105,122c-1.1,0-2,0.9-2,2s0.9,2,2,2s2-0.9,2-2S106.1,122,105,122z M81,119h258v11H81V119z"/>
			<rect x="274" y="143" fill="#1C1C1C" width="56" height="6"/>
			<path fill="#1C1C1C" d="M294,186c1.1,0,2,0.9,2,2s-0.9,2-2,2s-2-0.9-2-2S292.9,186,294,186z"/>
			<path fill="#1C1C1C" d="M252,221c1.1,0,2,0.9,2,2s-0.9,2-2,2s-2-0.9-2-2S250.9,221,252,221z"/>
			<rect x="226" y="79" fill="#1C1C1C" width="20" height="3"/>
			<path fill="#1C1C1C" d="M246,70v5h-20.1c-0.5-1.7-2-3-3.9-3v-2H246z"/>
			<path fill="#1C1C1C" d="M241,57h-24v4h24V57z M241,55v-4h-11v4H241z M420,0v325H212v-40h176c4.4,0,8-3.6,8-8v-10h-42V104.7
				c0-3.7-3.1-6.7-6.8-6.7H217v-2h5c2.2,0,4-1.8,4-4v-6h20c2.2,0,4-1.8,4-4V46c0-2.2-1.8-4-4-4h-27v4h27v20h-72V46h38v-4V0H420z
				 M192,62V50h-14v12H192z"/>
			<rect x="198" y="76" fill="#1C1C1C" width="24" height="16"/>
			<rect x="207" y="96" fill="#1C1C1C" width="6" height="2"/>
			<path fill="#1C1C1C" d="M210,208c1.1,0,2,0.9,2,2s-0.9,2-2,2c-1.1,0-2-0.9-2-2S208.9,208,210,208z"/>
			<path fill="#1C1C1C" d="M198,72c-1.9,0-3.5,1.3-3.9,3H174v-5h48v2H198z"/>
			<rect x="174" y="79" fill="#1C1C1C" width="20" height="3"/>
			<rect x="182" y="54" fill="#1C1C1C" width="6" height="4"/>
			<path fill="#1C1C1C" d="M168,223c1.1,0,2,0.9,2,2s-0.9,2-2,2s-2-0.9-2-2S166.9,223,168,223z"/>
			<path fill="#1C1C1C" d="M289.3,194.6l-2.6-3.1l-30,25l2.6,3.1L289.3,194.6z M288,188c0,3.3,2.7,6,6,6s6-2.7,6-6s-2.7-6-6-6
				S288,184.7,288,188z M243.3,222.9l1.4-3.801l-27-10l-1.4,3.801L243.3,222.9z M246,223c0,3.3,2.7,6,6,6s6-2.7,6-6s-2.7-6-6-6
				S246,219.7,246,223z M160.3,229l-0.6-4l-26,4l0.6,4L160.3,229z M174,225c0-3.3-2.7-6-6-6s-6,2.7-6,6s2.7,6,6,6S174,228.3,174,225
				z M203.6,214.9l-1.2-3.801l-28,9l1.2,3.801L203.6,214.9z M204,210c0,3.3,2.7,6,6,6s6-2.7,6-6s-2.7-6-6-6S204,206.7,204,210z
				 M132,233c0-3.3-2.7-6-6-6s-6,2.7-6,6s2.7,6,6,6S132,236.3,132,233z M339,163v104H81V163H339z"/>
			<path fill="#1C1C1C" d="M126,231c1.1,0,2,0.9,2,2s-0.9,2-2,2s-2-0.9-2-2S124.9,231,126,231z"/>
			<path fill="#1C1C1C" d="M96,140.5c3.3,0,6,2.7,6,6s-2.7,6-6,6s-6-2.7-6-6S92.7,140.5,96,140.5z"/>
			<path fill="#1C1C1C" d="M96,156.5v2.5H81v-25h15v2.5c-5.5,0-10,4.5-10,10S90.5,156.5,96,156.5z"/>
		</g>
		<g>
		</g>
	</g>
</g>
<g id="WORDPRESS">
</g>
</svg>
